# xmcd
#
# Track frame offsets: 
#        150
#        14046
#        28310
#        38052
#        52480
#        66198
#        82481
#        87632
#        102687
#        119694
#        135875
#        149114
#        168632
#        177277
#        190838
#        201864
#        223172
#        230431
#        242833
#        260773
#        268618
#
# Disc length: 3938 seconds
#
# Revision: 1
# Processed by: cddbd v1.5.1PL0 Copyright (c) Steve Scherf et al.
# Submitted via: ExactAudioCopy v0.95b3
#
DISCID=5f0f6015
DTITLE=Various Artist - Elko! A Cowboy's Gathering (Disk 1)
DYEAR=1900
DGENRE=
TTITLE0=Baxrter on Elko
TTITLE1=Ay Ay Ay
TTITLE2=Elevator Scale
TTITLE3=Powder River, Let'er Buck
TTITLE4=International Glenn
TTITLE5=The Drover Road to Amulree
TTITLE6=The Hooves of the Horses
TTITLE7=Ragtime Annie
TTITLE8=Not Gone
TTITLE9=Angels can do no more
TTITLE10=Doctor, Doctor
TTITLE11=Geronimo's Men (45 Horses)
TTITLE12=One Moment Please
TTITLE13=Plains of St.Augustine
TTITLE14=Bizarski
TTITLE15=Silver Spurs
TTITLE16=Dream of Spotted Buffalo
TTITLE17=The Time It Never Rained
TTITLE18=Roll on Owyhee
TTITLE19=Things of Intrinsic Worth
TTITLE20=Spanish is a Loving Tongue
EXTD=
EXTT0=
EXTT1=
EXTT2=
EXTT3=
EXTT4=
EXTT5=
EXTT6=
EXTT7=
EXTT8=
EXTT9=
EXTT10=
EXTT11=
EXTT12=
EXTT13=
EXTT14=
EXTT15=
EXTT16=
EXTT17=
EXTT18=
EXTT19=
EXTT20=
PLAYORDER=
